<svg xmlns="http://www.w3.org/2000/svg" viewBox="0 0 64 64">
  <rect width="64" height="64" rx="14" fill="#009C3B"/>
  <circle cx="32" cy="30" r="18" fill="none" stroke="white" stroke-width="2.5"/>
  <!-- Padrão de bola de futebol -->
  <polygon points="32,13 26,18 27,25 32,27 37,25 38,18" fill="white" opacity="0.9"/>
  <polygon points="14,24 18,29 25,27 27,25 26,18 20,17" fill="white" opacity="0.5"/>
  <polygon points="50,24 46,29 39,27 37,25 38,18 44,17" fill="white" opacity="0.5"/>
  <polygon points="14,36 20,35 25,29 25,27 18,29" fill="white" opacity="0.3"/>
  <polygon points="50,36 44,35 39,29 39,27 46,29" fill="white" opacity="0.3"/>
  <polygon points="27,43 32,45 37,43 39,37 37,33 32,31 27,33 25,37" fill="white" opacity="0.5"/>
  <!-- Texto -->
  <text x="32" y="58" font-size="10" font-weight="bold" text-anchor="middle" fill="#FFDF00" font-family="Arial,sans-serif" letter-spacing="1">2026</text>
</svg>
